<svg width="541" height="483" viewBox="0 0 541 483" fill="none" xmlns="http://www.w3.org/2000/svg">
<path fill-rule="evenodd" clip-rule="evenodd" d="M453.382 473.594C396.391 472.109 338.157 482.442 286.514 458.337C231.056 432.45 180.51 390.721 155.93 334.751C131.49 279.098 138.763 215.04 153.81 156.16C167.801 101.407 198.901 53.7113 238.152 12.9942C275.891 -26.1536 324.092 -49.4331 373.651 -71.8916C430.91 -97.839 489.339 -145.88 549.668 -128.174C609.998 -110.467 624.354 -31.7332 667.159 14.2502C712.092 62.5204 797.405 83.2124 807.11 148.388C816.807 213.513 744.808 259.9 712.264 317.169C683.171 368.364 676.388 436.704 625.945 467.183C575.685 497.552 512.112 475.125 453.382 473.594Z" fill="#2D87A8"/>
<g filter="url(#filter0_d)">
<path fill-rule="evenodd" clip-rule="evenodd" d="M92.5608 -188.821C149.907 -179.306 185.672 -124.799 229.551 -86.6466C266.855 -54.2111 305.246 -24.6017 330.39 17.9709C357.726 64.2537 379.33 114.247 379.953 168.005C380.64 227.276 374.195 292.46 334.078 336.072C294.194 379.43 230.083 391.978 171.263 394.872C119.94 397.397 76.9285 361.924 26.6741 351.196C-29.3364 339.239 -92.726 360.59 -140.11 328.402C-191.105 293.761 -229.329 235.176 -234.586 173.724C-239.776 113.053 -195.024 62.1219 -167.536 7.79471C-141.245 -44.1677 -123.546 -102.416 -77.1035 -137.523C-28.9881 -173.895 33.0716 -198.69 92.5608 -188.821Z" fill="#494F58"/>
</g>
<defs>
<filter id="filter0_d" x="-235" y="-191" width="623" height="594" filterUnits="userSpaceOnUse" color-interpolation-filters="sRGB">
<feFlood flood-opacity="0" result="BackgroundImageFix"/>
<feColorMatrix in="SourceAlpha" type="matrix" values="0 0 0 0 0 0 0 0 0 0 0 0 0 0 0 0 0 0 127 0"/>
<feOffset dx="4" dy="4"/>
<feGaussianBlur stdDeviation="2"/>
<feColorMatrix type="matrix" values="0 0 0 0 0 0 0 0 0 0 0 0 0 0 0 0 0 0 0.25 0"/>
<feBlend mode="normal" in2="BackgroundImageFix" result="effect1_dropShadow"/>
<feBlend mode="normal" in="SourceGraphic" in2="effect1_dropShadow" result="shape"/>
</filter>
</defs>
</svg>
